<?xml version="1.0" encoding="UTF-8" standalone="no"?>
<!-- Created with Inkscape (http://www.inkscape.org/) -->

<svg
   version="1.1"
   id="svg1"
   width="2730.6667"
   height="2730.6667"
   viewBox="0 0 2730.6667 2730.6667"
   sodipodi:docname="qca-simple.svg"
   inkscape:version="1.4 (86a8ad7, 2024-10-11)"
   xmlns:inkscape="http://www.inkscape.org/namespaces/inkscape"
   xmlns:sodipodi="http://sodipodi.sourceforge.net/DTD/sodipodi-0.dtd"
   xmlns="http://www.w3.org/2000/svg"
   xmlns:svg="http://www.w3.org/2000/svg">
  <defs
     id="defs1" />
  <sodipodi:namedview
     id="namedview1"
     pagecolor="#ffffff"
     bordercolor="#000000"
     borderopacity="0.25"
     inkscape:showpageshadow="2"
     inkscape:pageopacity="0.0"
     inkscape:pagecheckerboard="0"
     inkscape:deskcolor="#d1d1d1"
     inkscape:zoom="0.28454589"
     inkscape:cx="1368.8477"
     inkscape:cy="1368.8477"
     inkscape:window-width="1920"
     inkscape:window-height="991"
     inkscape:window-x="-9"
     inkscape:window-y="-9"
     inkscape:window-maximized="1"
     inkscape:current-layer="g1" />
  <g
     inkscape:groupmode="layer"
     inkscape:label="Image"
     id="g1">
    <path
       style="fill:#000000"
       d="m 2356.3339,2556.8158 -7.6672,0.563 -4.8199,-1.8036 -4.8199,-1.8037 -4.1749,-2.9729 -4.175,-2.9728 -3.3052,-5.64 -3.3053,-5.64 -1.4141,-9.2728 -1.414,-9.2729 -1.1567,-7.3334 -1.1567,-7.3333 -0.9502,-4 -0.9502,-4 -2.4559,-7.3333 -2.4559,-7.3334 -2.6395,-7.3333 -2.6395,-7.3333 -3.4946,-9.3334 -3.4945,-9.3333 -1.8501,-6 -1.85,-6 -2.6554,-7.3333 -2.6554,-7.3334 -3.4895,-9.3333 -3.4895,-9.3333 -1.3389,-4.3898 -1.339,-4.3897 -2.4917,-4.2769 -2.4918,-4.277 -1.3892,-6.6666 -1.3892,-6.6667 -1.5076,-7.3333 -1.5076,-7.3334 -2.5799,-8 -2.58,-8 -1.8525,-6 -1.8524,-6 -3.5581,-9.3333 -3.5582,-9.3333 -1.7938,-7.3334 -1.7939,-7.3333 -1.9963,-6.6667 -1.9963,-6.6666 -2.0273,-5.3334 -2.0273,-5.3333 -0.059,-2.4161 -0.059,-2.4162 -2.1117,-6.9172 -2.1117,-6.9172 -1.9006,-4.6666 -1.9006,-4.6667 -1.2817,-6 -1.2818,-6 -1.9958,-8 -1.9959,-8 -1.5624,-6.1629 -1.5624,-6.1628 -6.1477,3.8017 -6.1477,3.8017 -10,1.5235 -10,1.5235 -6.6666,1.1405 -6.6667,1.1406 -13.3333,1.3817 -13.3334,1.3817 -6.6666,1.3026 -6.6667,1.3026 -26.6667,1.8957 -26.6666,1.8956 -3.3334,0.065 -3.3333,0.065 -43.3333,0.6233 -43.3334,0.6233 -8.6666,0.9031 -8.6667,0.9031 -8,1.8197 -8,1.8198 -6.14,1.5533 -6.1399,1.5534 -6.0202,-0.9028 -6.0202,-0.9028 -6.0564,-3.8408 -6.0563,-3.8408 -3.7835,-6.4368 -3.7835,-6.4368 v -9.3333 -9.3333 l 3.7404,-6.3632 3.7403,-6.3632 5.3667,-3.5515 5.3666,-3.5515 7.5597,-1.6822 7.5596,-1.6822 5.3334,-1.272 5.3333,-1.2719 8.6667,-1.6691 8.6666,-1.669 38,-0.3836 38,-0.3835 20.6667,-0.7864 20.6667,-0.7864 22.6666,-1.9803 22.6667,-1.9802 7.3333,-1.28 7.3334,-1.28 12,-1.3967 12,-1.3968 8.6666,-1.5555 8.6667,-1.5555 7,-0.08 7,-0.08 v -0.4195 -0.4195 l -2.4842,-6.2472 -2.4841,-6.2472 -2.7989,-7.6875 -2.7989,-7.6875 -2.9713,-7.6458 -2.9712,-7.6458 -3.7457,-5.9277 -3.7457,-5.9278 v -1.7382 -1.7383 l -3.2266,-6.334 -3.2266,-6.334 -3.0277,-8 -3.0277,-8 -3.7457,-5.9277 -3.7457,-5.9278 v -1.9434 -1.9434 l -27.4473,-45.4622 -27.4472,-45.4622 -6.4933,-9.3333 -6.4933,-9.3334 -5.7261,-6.4186 -5.7261,-6.4186 -5.3334,-5.6626 -5.3333,-5.6627 -3.5687,-4.7246 -3.5686,-4.7247 -8.2221,-0.7456 -8.2221,-0.7455 -6.174,-3.8171 -6.174,-3.8171 -4.0353,-6.5269 -4.0352,-6.5269 v -9.5424 -9.5425 l 4.0352,-6.5268 4.0353,-6.5269 6.5268,-4.0352 6.5269,-4.0353 h 17.4379 17.4379 l 6.3709,3.7449 6.3708,3.7449 1.6292,2.6438 1.6291,2.6439 5.4158,3.1871 5.4158,3.1872 7.1728,9.7574 7.1728,9.7575 4.7447,4.8537 4.7448,4.8538 4.4973,4.7836 4.4973,4.7835 8.3924,12.3627 8.3923,12.3627 27.4437,45.4462 27.4436,45.4461 v 1.4431 1.4431 l 4.5369,8.4441 4.5368,8.4441 2.6815,5.3333 2.6815,5.3333 2.8953,8 2.8953,8 3.8511,7.7855 3.851,7.7855 2.7231,4.406 2.723,4.406 1.8969,5.8085 1.8968,5.8085 2.6652,7.3334 2.6653,7.3333 3.5181,9.3333 3.5182,9.3334 1.7346,6.6666 1.7346,6.6667 2.9146,8 2.9146,8 2.043,7.3333 2.043,7.3334 1.9921,8 1.9921,8 2,8 2,8 1.7989,7.3333 1.7989,7.3333 1.8898,6.7282 1.8897,6.7282 1.4102,2.6349 1.4101,2.6349 1.3416,6.6369 1.3416,6.6369 2.0215,6.6667 2.0215,6.6667 2.0273,5.3333 2.0273,5.3333 0.064,2.6667 0.064,2.6667 3.4052,9.3333 3.4052,9.3333 1.8215,6 1.8215,6 3.5068,9.3334 3.5067,9.3333 1.0882,4 1.0881,4 1.6544,9.3333 1.6544,9.3334 2.0813,6.6666 2.0814,6.6667 1.7578,2.7472 1.7579,2.7471 1.9013,5.9195 1.9014,5.9195 3.5219,9.3334 3.522,9.3333 1.8216,6 1.8215,6 3.4879,9.3333 3.4879,9.3334 1.8353,5.3333 1.8352,5.3333 3.5456,9.3334 3.5456,9.3333 1.8278,6.6667 1.8278,6.6666 1.2853,5.3334 1.2853,5.3333 1.5024,9.3333 1.5025,9.3334 1.4473,7.5816 1.4473,7.5816 -0.8865,5.9119 -0.8866,5.9119 -3.8408,6.0563 -3.8408,6.0563 -6.1029,3.5766 -6.103,3.5766 z m -579.8764,-58.6778 -7.7908,0.5742 -4.8199,-1.8037 -4.8199,-1.8037 -4.1749,-2.9728 -4.175,-2.9729 -3.6718,-6.2462 -3.6718,-6.2462 -0.3192,-29.3333 -0.3191,-29.3333 1.3191,-7.6667 1.3192,-7.6667 1.2831,-7.6666 1.2832,-7.6667 1.5024,-9.3333 1.5025,-9.3334 1.2842,-5.3333 1.2842,-5.3333 1.8033,-7.3334 1.8034,-7.3333 2.043,-7.3333 2.043,-7.3334 2.9146,-8 2.9146,-8 1.885,-7.3333 1.885,-7.3333 1.9694,-8 1.9693,-8 1.875,-7.3334 1.875,-7.3333 2.9373,-8 2.9373,-8 1.81,-7.006 1.8099,-7.0061 1.9247,-6.9939 1.9246,-6.994 3.5457,-9.3333 3.5456,-9.3334 1.8679,-5.8085 1.8679,-5.8085 2.9808,-4.8229 2.9807,-4.823 3.6652,-7.3685 3.6652,-7.3686 0.042,-1.3075 0.042,-1.3076 2.8165,-7.3591 2.8165,-7.3591 4.1059,-8.6667 4.106,-8.6666 6.4108,-10.8085 6.4109,-10.8085 0.01,-1.8582 0,-1.8582 2.8468,-4.6666 2.8468,-4.6667 4.1989,-8 4.1988,-8 1.5885,-5.3333 1.5884,-5.3334 1.2883,-4.6666 1.2883,-4.6667 3.2242,-8.8484 3.2241,-8.8485 2.1818,-3.1149 2.1818,-3.1149 v -2.236 -2.236 l 4.657,-6.9202 4.6569,-6.9203 3.2731,-6.2137 3.2732,-6.2138 2.7868,-7.6458 2.7869,-7.6458 2.6667,-7.3333 2.6666,-7.3334 2.6667,-7.3333 2.6667,-7.3333 2.7383,-7.6876 2.7382,-7.6875 3.1881,-7.0126 3.188,-7.0127 3.2679,-6.9873 3.2679,-6.9874 2.8774,-8 2.8774,-8 3.0717,-6.6666 3.0718,-6.6667 8.9004,-18.3428 8.9003,-18.3427 2.9494,-3.6573 2.9493,-3.6572 3.9566,-5.8755 3.9567,-5.8754 4.3303,-6.1246 4.3303,-6.1245 4.1222,-6.3413 4.1223,-6.3412 2.6082,-1.8268 2.6082,-1.8269 4.0772,-6.429 4.0771,-6.429 1.2255,-8.7363 1.2255,-8.7362 3.6718,-5.9647 3.6719,-5.9648 6.5268,-4.0352 6.5269,-4.0353 h 9.5425 9.5424 l 6.5269,4.0353 6.5268,4.0352 3.978,6.4342 3.9779,6.4341 0.02,8.1973 0.02,8.1973 -1.6637,9.941 -1.6637,9.941 -3.6096,6.059 -3.6096,6.059 -2.3233,5.0718 -2.3233,5.0719 -5.033,5.1955 -5.033,5.1955 -4.6667,6.8467 -4.6666,6.8467 -4.6667,6.6706 -4.6667,6.6707 -4.8654,6.667 -4.8654,6.667 -8.6652,17.5483 -8.6651,17.5483 -2.9247,8 -2.9246,8 -3.1881,7.0126 -3.1881,7.0126 -3.2679,6.9874 -3.2679,6.9874 -2.8057,7.6458 -2.8058,7.6458 -2.6667,7.3333 -2.6666,7.3334 -2.6667,7.3333 -2.6667,7.3333 -2.7231,7.6875 -2.7231,7.6876 -3.2266,6.334 -3.2266,6.334 v 1.8653 1.8654 l -4.345,6.4673 -4.3449,6.4673 -3.0673,5.2099 -3.0672,5.2099 -1.992,5.4568 -1.9919,5.4567 -2.4661,7.3334 -2.4661,7.3333 -0.9451,4.6667 -0.9451,4.6666 -2.9834,6 -2.9835,6 -2.9977,6 -2.9976,6 -4.5369,8.4441 -4.5368,8.4441 v 1.44 1.44 l -7.1429,12.1159 -7.1428,12.1159 -3.0027,8 -3.0026,8 -3.1878,6.7999 -3.1879,6.7999 v 1.9391 1.9391 l -3.699,5.9277 -3.6989,5.9277 -2.2701,5.3333 -2.2701,5.3333 -2.1275,6 -2.1276,6 -2.0219,6 -2.022,6 -1.9315,7.3334 -1.9316,7.3333 -1.8661,6.6667 -1.866,6.6666 -2.9129,8 -2.913,8 -1.856,8 -1.856,8 -1.8547,7.3334 -1.8547,7.3333 -2.043,7.3333 -2.043,7.3334 -2.9147,8 -2.9146,8 -1.8841,7.3333 -1.8842,7.3333 -1.806,8.6667 -1.8061,8.6667 -1.5926,10 -1.5926,10 -1.3558,6.3461 -1.3558,6.3462 -0.1973,29.0928 -0.1973,29.0927 -4.0352,6.5258 -4.0353,6.5259 -6.174,3.8171 -6.174,3.8171 z m -499.1241,-524.2075 -63.3334,0.3623 -4,-1.122 -4,-1.1219 -12,-0.8661 -12,-0.8661 -5.3333,-1.6867 -5.3333,-1.6867 -9.3334,-1.6442 -9.3333,-1.6442 -4.6667,-1.2622 -4.6666,-1.2622 -4.6667,-1.2137 -4.6667,-1.2136 -8.3005,-1.3719 -8.3005,-1.3719 -9.5673,-4.8015 -9.5673,-4.8015 -9.012,-9.012 -9.0121,-9.0121 -2.1544,-4.1661 -2.1543,-4.1661 h -1.2313 -1.2312 l -3.5962,-4.7149 -3.5962,-4.7148 -2.3881,-6.9519 -2.3882,-6.9518 -3.5408,-9.3333 -3.5409,-9.3333 -1.8062,-7.3334 -1.8062,-7.3333 -1.2842,-5.3333 -1.2842,-5.3334 -1.5024,-9.3333 -1.5025,-9.3333 -1.2832,-7.6667 -1.2831,-7.6667 -1.4931,-8.3333 -1.4931,-8.3333 -2.0541,-6 -2.0542,-6 -0.3701,-66 -0.3701,-66.0001 2.5978,-28.6666 2.5978,-28.6667 1.1572,-6.6667 1.1572,-6.6666 1.506,-9.7737 1.5061,-9.7737 1.111,-2.2263 1.111,-2.2263 1.6473,-10 1.6474,-10 1.3011,-5.3334 1.3011,-5.3333 1.8033,-7.3333 1.8033,-7.3334 2.0256,-7.3333 2.0256,-7.3333 3.5456,-9.3334 3.5456,-9.3333 1.8352,-5.3333 1.8352,-5.3334 3.4725,-9.3333 3.4724,-9.3333 2.4516,-7.3334 2.4516,-7.3333 0.9451,-4.6667 0.9452,-4.6666 3.1147,-6 3.1147,-6 2.8585,-8 2.8585,-8 3.3543,-7.3334 3.3544,-7.3333 2.7,-5.3333 2.7,-5.3334 6.0083,-12 6.0082,-12 4.1829,-4 4.1829,-4 2.9898,-4.2393 2.9897,-4.2393 4.9762,-3.0052 4.9761,-3.0052 4.4284,-3.7982 4.4283,-3.7981 6.2383,-3.1391 6.2384,-3.1392 10.0298,-5.2619 10.0298,-5.262 6.6368,-4.881 6.6369,-4.8809 5.3333,-3.8567 5.3334,-3.8566 5.3333,-2.6389 5.3333,-2.639 5.3334,-2.7034 5.3333,-2.7034 7.654,-3.4997 7.654,-3.4996 7.6794,-3.5293 7.6793,-3.5294 3.3333,-1.7932 3.3333,-1.7933 11.3334,-5.4637 11.3333,-5.4637 6.6667,-3.0735 6.6666,-3.0736 8,-3.8565 8,-3.8565 6.0605,-3.5604 6.0605,-3.5604 9.2728,-1.4472 9.2729,-1.4472 11.4188,-1.1861 11.4189,-1.1862 33.2478,0.414 33.2478,0.414 5.5231,1.5322 5.5231,1.5322 27.1436,0.5494 27.1436,0.5493 6,1.983 6,1.983 4.6666,0.9175 4.6667,0.9174 4.576,2.6357 4.576,2.6356 5.424,1.7556 5.424,1.7555 4,0.8752 4,0.8752 7.3333,2.7263 7.3334,2.7263 6.6666,3.1226 6.6667,3.1227 7.6458,2.8057 7.6459,2.8058 7.6875,2.7383 7.6875,2.7382 6.6666,3.1227 6.6667,3.1226 7.6458,2.8058 7.6459,2.8057 7.6875,2.7232 7.6875,2.7231 6,2.9966 6,2.9966 4.2571,6.2666 4.2571,6.2665 0.8782,5.8562 0.8782,5.8562 -0.9016,5.3366 -0.9016,5.3367 -3.7969,5.987 -3.7969,5.9871 -6.4368,3.7775 -6.4368,3.7775 -8.6667,0.01 -8.6667,0.01 -7.6458,-3.0503 -7.6458,-3.0503 -7.6875,-2.7382 -7.6875,-2.7383 -6.6667,-3.1226 -6.6667,-3.1226 -7.6458,-2.8058 -7.6458,-2.8058 -7.6875,-2.7383 -7.6875,-2.7382 -6.6667,-3.0736 -6.6667,-3.0736 -4,-1.6249 -4,-1.625 -7.3333,-2.3831 -7.3333,-2.3832 -4.6667,-0.9256 -4.6667,-0.9256 -4.5759,-2.6357 -4.576,-2.6357 -5.424,-1.809 -5.4241,-1.809 -4.6666,-0.8438 -4.6667,-0.8439 -22.6667,-0.4111 -22.6666,-0.4112 -9.3334,-1.609 -9.3333,-1.609 -28.6667,0.01 -28.6666,0.01 -8.7363,1.2906 -8.7362,1.2906 -6.5248,4.138 -6.5248,4.1379 h -1.7383 -1.7382 l -6.3341,3.2343 -6.334,3.2342 -14.6667,6.9501 -14.6666,6.9501 -3.3334,1.8711 -3.3333,1.871 -4.6667,2.1011 -4.6666,2.101 -6.6667,3.0722 -6.6667,3.0722 -8.6666,4.1491 -8.6667,4.1492 -5.4792,3.6222 -5.4792,3.6222 -5.8541,3.9566 -5.8542,3.9567 -3.7288,3.0095 -3.7288,3.0096 -11.6045,5.6783 -11.6045,5.6783 -6.6667,4.3215 -6.6667,4.3214 -3.5578,3.034 -3.5578,3.0341 -3.8753,7.3333 -3.8753,7.3333 -4.7948,9.3334 -4.7948,9.3333 -2.894,8 -2.894,8 -3.118,6.6667 -3.1181,6.6666 -0.9043,2.6667 -0.9043,2.6667 -1.7544,6.6666 -1.7545,6.6667 -3.5456,9.3333 -3.5456,9.3334 -1.8352,5.3333 -1.8352,5.3333 -3.4833,9.3334 -3.4833,9.3333 -2.7004,8.6667 -2.7003,8.6666 -1.7217,6 -1.7217,6 -1.6007,9.3334 -1.6008,9.3333 -1.2833,5.3333 -1.2834,5.3334 -1.7563,8.6666 -1.7564,8.6667 -1.4866,8 -1.4866,8 -2.1293,23.3333 -2.1294,23.3334 0.016,60.6667 0.016,60.6666 1.3346,6 1.3347,6 1.305,5.3334 1.3051,5.3333 1.5025,9.3333 1.5024,9.3334 1.2832,7.6666 1.2831,7.6667 1.5012,8.3333 1.5011,8.3334 2.4135,7.3333 2.4136,7.3333 3.1438,8.6667 3.1438,8.6667 6.7895,7.0496 6.7896,7.0496 8.3552,1.3455 8.3552,1.3456 2.1301,1.0961 2.1301,1.096 9.3333,1.6476 9.3334,1.6475 6.3644,1.8985 6.3644,1.8984 12.5936,1.1915 12.5937,1.1915 1.5266,0.9435 1.5266,0.9435 57.5957,0.022 57.5957,0.021 6.5863,-1.4134 6.5863,-1.4134 9.3333,-1.4091 9.3334,-1.409 7.8515,-0.7379 7.8515,-0.738 6.1485,-1.8367 6.1485,-1.8368 8.6666,-2.7313 8.6667,-2.7313 6,-1.9455 6,-1.9455 10,-1.5666 10,-1.5667 6.6667,-1.2902 6.6666,-1.2901 7.3334,-2.0244 7.3333,-2.0243 4.6667,-1.8482 4.6666,-1.8482 4.6667,-1.3232 4.6667,-1.3232 7.3333,-2.6503 7.3333,-2.6503 9.3334,-3.4742 9.3333,-3.4743 6,-1.898 6,-1.898 9.1977,-6.0446 9.1977,-6.0446 1.469,-0.01 1.4689,-0.01 4.8399,-1.3444 4.8399,-1.3443 5.1601,-4.1556 5.1601,-4.1556 4.6667,-2.1619 4.6667,-2.162 13.3333,-7.9973 13.3333,-7.9974 h 9.4379 9.4379 l 6.5269,4.0353 6.5269,4.0352 4.0352,6.5269 4.0352,6.5268 v 9.5425 9.5424 l -4.0522,6.5545 -4.0523,6.5544 -12.6144,7.667 -12.6144,7.667 -1.0286,0.01 -1.0286,0.01 -5.638,3.6667 -5.6381,3.6666 -5.7205,4.2964 -5.7204,4.2965 -5.6129,1.4496 -5.6129,1.4496 -2.298,0.6659 -2.2981,0.666 -7.0172,4.827 -7.0172,4.827 -8.6847,3.1481 -8.6848,3.1482 -5.3333,1.8352 -5.3334,1.8352 -9.3333,3.522 -9.3333,3.522 -6,1.852 -6,1.8521 -6.6667,2.1846 -6.6667,2.1847 -4.6666,1.8979 -4.6667,1.898 -6,1.2303 -6,1.2304 -5.3333,1.322 -5.3334,1.3219 -10,1.5411 -10,1.5412 -8,2.6313 -8,2.6314 -7.3333,2.0564 -7.3333,2.0564 -7.3334,1.8297 -7.3333,1.8297 -6,1.3056 -6,1.3055 -12.6667,1.4356 -12.6666,1.4356 -7.3334,1.4197 -7.3333,1.4197 z m -708.00005,-768.0018 -28.66667,0.3745 -8.66666,-0.92 -8.66667,-0.9201 -4.66667,-1.5025 -4.66666,-1.5026 -6.66667,-2.1326 -6.66667,-2.1326 -6.66667,-2.0131 -6.66666,-2.013 -6.66667,-1.7323 -6.66667,-1.7323 -10,-5.2685 -10,-5.2686 -14.89526,-8.9441 -14.89526,-8.9441 -5.10474,-6.825 -5.10474,-6.8249 -3.33008,-4.8134 -3.33009,-4.8135 -2.22722,-1.6656 -2.22722,-1.6657 -3.04071,-5.001 -3.04071,-5.001 -4.06865,-5.329 -4.06865,-5.329 -2.22398,-1.67 -2.22397,-1.67 -3.04841,-5.001 -3.04841,-5.001 -2.27505,-1.6588 -2.27505,-1.6587 -4.45257,-6.8157 -4.45256,-6.8156 -5.71257,-8.859 -5.71257,-8.8589 -3.13123,-6 -3.13122,-6 -4.82851,-8.6666 -4.8285,-8.6667 -2.15082,-4.6667 -2.15082,-4.6666 -3.38741,-7.3334 -3.38741,-7.3333 -3.31455,-7.3333 -3.31454,-7.33337 -3.089,-6.10294 -3.08899,-6.10293 -0.90207,-5.89707 -0.90206,-5.89706 -1.1594,-2.26224 -1.1594,-2.26225 -1.31622,-8.40442 -1.31621,-8.40442 -1.89885,-20.66667 -1.89884,-20.66667 -0.0337,-54.66667 -0.0337,-54.66667 1.95279,-26 1.95278,-26 1.25465,-7.33333 1.25464,-7.33333 1.50247,-9.33334 1.50246,-9.33333 1.28419,-5.33334 1.28418,-5.33333 1.81561,-7.33333 1.8156,-7.33334 1.49602,-6 1.49601,-6 2.74048,-7.33333 2.74049,-7.33333 3.18806,-7.01265 3.18805,-7.01264 3.26333,-6.98736 3.26333,-6.98735 0.65805,-2.1766 0.65806,-2.17659 -2.96346,-5.82341 -2.96346,-5.8234 -3.93455,-6.66667 -3.93455,-6.66667 -0.31074,-22 -0.31074,-22 1.19714,-6 1.19714,-6 1.54896,-10 1.54896,-10 1.30223,-5.33333 1.30223,-5.33334 1.68577,-6.66666 1.68578,-6.66667 2.78089,-5.33334 2.78088,-5.33333 2.12345,-4.66667 2.12345,-4.66666 4.83159,-8.66667 4.83158,-8.66667 6.74092,-13.33333 6.74093,-13.33333 4.76646,-4.8277 4.76646,-4.8277 5.33333,-7.09955 5.33333,-7.09954 3.73414,-3.90946 3.73414,-3.90946 9.75671,-16.1633 9.75671,-16.1633 5.40501,-8.11175 5.40502,-8.11175 3.74771,-2.4556 3.74771,-2.45559 4.17571,-4.09932 4.17571,-4.09932 6.02532,-5.33333 6.02531,-5.33334 6.48874,-5.68663 6.48873,-5.68663 6,-4.8241 6,-4.8241 3,-1.36996 3,-1.36995 v -1.07726 l 0,-1.07725 7.47249,-5.70873 7.47249,-5.70872 5.65207,-4 5.65206,-4 5.87545,-3.92208 5.87545,-3.92209 7.8186,-5.07791 7.8186,-5.07792 h 2.19201 2.192 l 6.26165,-3.33334 6.26165,-3.33333 1.59453,0 1.59452,0 6.79989,-3.2425 6.79988,-3.24251 6.66667,-2.20727 6.66666,-2.20726 7.33334,-1.81377 7.33333,-1.81376 5.33333,-1.28419 5.33334,-1.28418 8.66667,-1.39701 8.66666,-1.39702 h 33.33334 33.33333 l 8.66667,1.39702 8.66666,1.39701 5.33334,1.30506 5.33333,1.30506 6,1.23036 6,1.23036 4.66667,1.90058 4.66667,1.90058 6.66666,1.97985 6.66667,1.97984 4.66667,0.94724 4.66666,0.94724 6,2.99289 6,2.9929 8,3.66801 8,3.668 5.33334,2.66446 5.33333,2.66446 9.33333,4.65327 9.33334,4.65326 7.33333,3.34895 7.33334,3.34894 5.33333,2.65355 5.33333,2.65355 8.44407,4.53685 8.44407,4.53685 1.44199,0 1.44198,0 25.76806,15.44035 25.76807,15.44035 0.67685,1.09517 0.67685,1.09517 12.3357,7.55313 12.3357,7.55313 6.85351,4.91135 6.85352,4.91135 5.14648,3.92849 5.14649,3.9285 4,3.61657 4,3.61657 14.66667,14.73476 14.6667,14.73475 6.4227,6.75275 6.4227,6.75274 2.7839,6.29346 2.7839,6.29345 6.578,11.34065 6.5781,11.34065 1.9374,3.33333 1.9375,3.33333 2.0736,4.66667 2.0737,4.66667 2.7809,5.33333 2.7808,5.33333 1.6858,6.66667 1.6858,6.66667 1.2853,5.33333 1.2853,5.33334 1.4646,8.66666 1.4645,8.66667 -0.7255,35.33333 -0.7255,35.33334 -0.3495,8.66666 -0.3495,8.66667 -1.6143,9.77369 -1.6143,9.77369 -1.323,2.47199 -1.3229,2.47199 -0.059,3.08765 -0.058,3.08766 -2.0273,5.33333 -2.0273,5.33334 -1.9975,6.66666 -1.9975,6.66667 -1.8154,6.66667 -1.8153,6.66666 -3.5456,9.33334 -3.5456,9.33333 -1.8353,5.33333 -1.8352,5.33334 -3.4981,9.33333 -3.4981,9.33334 -1.799,5.57939 -1.799,5.5794 -2.5735,5.08727 -2.5735,5.08727 -3.4931,7.67931 -3.4932,7.67931 -3.3334,7.33334 -3.3333,7.33333 -3.4996,7.65402 -3.49967,7.65402 -2.66446,5.33334 -2.66445,5.33333 -4.64609,9.33333 -4.6461,9.33334 -2.70905,5.33333 -2.70904,5.33334 -5.41213,10.66666 -5.41213,10.66667 -5.95621,10 -5.95622,10 -2.52066,3.33333 -2.52066,3.33334 -5.2818,7.29745 -5.2818,7.29745 v 0.98105 0.98106 l 24.33333,24.51304 24.33334,24.51305 5.33333,6.27234 5.33333,6.27233 4.66664,5.00864 4.6667,5.00864 5.3333,7.09977 5.3334,7.09978 4.6666,4.97727 4.6667,4.9772 5.6866,6.5171 5.6867,6.5172 4.3133,5.5098 4.3134,5.5098 5.3333,6.9958 5.3334,6.9958 4.6666,4.9591 4.6667,4.9591 4.1142,5.2019 4.1141,5.202 5.7763,9.3333 5.7763,9.3334 2.28,2.6666 2.2801,2.6667 8.8484,14.1924 8.8485,14.1924 3.2524,2.1311 3.2524,2.131 3.7286,6.3432 3.7287,6.3432 v 9.4379 9.4379 l -4.0352,6.5269 -4.0353,6.5268 -6.5269,4.0353 -6.5268,4.0352 h -9.4379 -9.4379 l -6.2462,-3.6718 -6.2462,-3.6718 -2.9428,-4.3282 -2.9427,-4.3282 -3.87,-3.3471 -3.87,-3.3471 -10.2744,-16.1134 -10.2744,-16.1135 -6.5159,-9.8728 -6.5159,-9.8727 -3.8999,-4.6667 -3.8998,-4.6667 -5.2709,-6 -5.2708,-6 -4.3134,-5.5098 -4.31337,-5.5098 -5.33333,-6.9958 -5.33334,-6.9958 -4.66666,-4.9773 -4.66667,-4.9772 -5.68663,-6.5172 -5.68663,-6.5171 -4.69128,-6 -4.69128,-6 -5.62209,-6.363 -5.62209,-6.363 -20.38126,-20.68112 -20.38126,-20.68109 -4.51672,4.78911 -4.51672,4.78912 -2.33083,3.58834 -2.33084,3.58834 -4.10452,5.20196 -4.10452,5.20196 -4.66667,4.95907 -4.66666,4.95911 -5.33334,7.0371 -5.33333,7.0372 -10,10.4241 -10,10.4241 -5.33334,6.3073 -5.33333,6.3073 -3.52261,3.4037 -3.52261,3.4038 -5.98866,5.3333 -5.98865,5.3333 -6.87253,6 -6.87253,6 -11.0639,10.6667 -11.06389,10.6667 -6.30161,5.3333 -6.30161,5.3333 -6.60162,6.3334 -6.60163,6.3333 h -1.26935 -1.26934 l -4.37973,3.8166 -4.37973,3.8166 -30,17.9595 -30,17.9594 -4,2.0791 -4,2.0792 -8,4.3812 -8,4.3811 -13.33578,6.8495 -13.33577,6.8494 -3.58078,2.3462 -3.58078,2.3462 -6.41678,1.8148 -6.41678,1.8148 -6,2.1969 -6,2.197 z m -1.33333,-61.5483 15.33333,-0.3009 4.54896,-0.8073 4.54897,-0.8072 6.1177,-3.092 6.1177,-3.092 14.00001,-7.3393 14,-7.3393 7.33333,-3.9244 7.33333,-3.9245 30.66667,-18.4017 30.66667,-18.4017 4.66666,-3.8454 4.66667,-3.8453 6.99633,-6.2963 6.99633,-6.2964 10.58268,-10 10.58267,-10 5.93226,-5.3333 5.93226,-5.3334 6.87122,-6 6.87121,-6 5.61752,-5.6741 5.61752,-5.6742 5.33334,-6.22621 5.33333,-6.22623 7.35974,-7.43295 7.35974,-7.43295 3.88435,-5.33333 3.88436,-5.33333 4.08924,-4.10112 4.08924,-4.10111 5.33333,-7.15946 5.33334,-7.15946 3.34349,-3.51882 3.34349,-3.51881 3.65651,-5.52536 3.65651,-5.52536 v -0.78479 l 0,-0.78479 -5,-4.82113 -5,-4.82114 -5.36065,-4.18026 -5.36064,-4.18026 -10.63936,-6.40153 -10.63936,-6.40154 -2.66666,-2.31064 -2.66667,-2.31064 -12.44054,-7.53023 -12.44054,-7.53022 h -1.09214 -1.09214 l -6.92023,-4.65697 -6.92022,-4.65697 -6.21376,-3.15129 -6.21376,-3.15129 -8,-3.65943 -8,-3.65943 -6.33403,-3.19898 -6.33403,-3.19898 h -1.55006 -1.55005 l -12.11592,-7.39622 -12.11592,-7.39622 -7.33333,-5.96253 -7.33333,-5.96252 -6.89457,-4.55725 -6.89456,-4.55724 -3.7721,-6.41734 -3.77211,-6.41735 v -9.33333 -9.33333 l 3.78351,-6.4368 3.7835,-6.43679 5.98709,-3.7969 5.98709,-3.7969 5.33663,-0.90162 5.33663,-0.90162 5.71961,0.85771 5.71962,0.85771 5.83983,3.94077 5.83983,3.94078 7.60971,5.67016 7.60971,5.67016 5.72362,4.11576 5.72363,4.11575 6.66666,3.35917 6.66667,3.35917 8,3.65943 8,3.65943 6.33403,3.19898 6.33403,3.19898 h 1.73826 1.73827 l 6.59437,4.26935 6.59437,4.26936 7.16154,4.39731 7.16154,4.39731 h 0.72255 0.72254 l 12.41799,7.41009 12.418,7.41008 0.69556,1.12543 0.69556,1.12544 12.33569,7.56452 12.3357,7.56452 6.32375,4.35222 6.32374,4.35222 4.94298,5.08963 4.94299,5.08963 1.39994,-2.40195 1.39994,-2.40195 4.0227,-5.47327 4.02271,-5.47327 4.22098,-6.66667 4.22099,-6.66666 5.1915,-10.00001 5.1915,-10 5.01829,-10 5.01829,-10 2.68724,-5.33333 2.68724,-5.33333 4.65327,-9.33334 4.65327,-9.33333 3.18263,-7.01264 3.18264,-7.01265 3.33333,-7.33333 3.33334,-7.33334 3.2679,-6.98735 3.26789,-6.98736 2.80578,-7.64582 2.80577,-7.64582 2.66666,-7.33333 2.66667,-7.33334 2.79887,-7.68751 2.79886,-7.68751 2.26569,-6 2.2657,-6 1.46957,-5.33334 1.46958,-5.33333 2.15253,-6.66667 2.15254,-6.66666 2.00807,-6.66667 2.00806,-6.66667 1.91375,-8.62844 1.91376,-8.62844 0.815,-19.37156 0.8151,-19.37156 7e-4,-21.63242 7e-4,-21.63241 -1.6132,-7.03425 -1.61318,-7.03425 -1.78376,-5.33334 -1.78377,-5.33333 -3.87396,-7.35393 -3.87396,-7.35393 -6.05174,-9.9794 -6.05174,-9.97941 -2.05195,-4.92366 -2.05195,-4.92366 -16.50497,-16.40967 -16.50498,-16.40968 -5.14674,-4 -5.14675,-4 -6.20688,-4.79687 -6.20688,-4.79687 -10.57466,-6.36226 -10.57467,-6.36226 -2.66667,-2.34773 -2.66666,-2.34772 -24.7942,-14.82648 -24.79419,-14.82648 -1.94477,0 -1.94476,0 -6.0043,-3.66666 -6.0043,-3.66667 -7.60272,-3.64329 -7.60272,-3.64329 -7.65402,-3.49964 -7.65403,-3.49964 -5.33333,-2.66446 -5.33333,-2.66446 -9.33334,-4.65327 -9.33333,-4.65327 -6.66667,-3.14526 -6.66666,-3.14526 -4.66667,-1.33177 -4.66667,-1.33177 -6.66666,-2.13261 -6.66667,-2.13261 -6.66667,-2.00806 -6.66667,-2.00807 -8.66666,-2.01248 -8.66667,-2.01248 -33.33333,0 -33.33334,0 -8.66666,2.01248 -8.66667,2.01248 -6.66667,1.99181 -6.66667,1.99181 -6,2.11835 -6,2.11834 -4.8482,2.63488 -4.84821,2.63487 -1.82907,0 -1.82907,0 -5.98939,3.19346 -5.98939,3.19346 -6.66667,4.50474 -6.66666,4.50474 -7.83445,5.96847 -7.83445,5.96847 -4.16555,2.97587 -4.16555,2.97587 -4.10516,3.69079 -4.10516,3.6908 -7.06714,5.33333 -7.06714,5.33334 -4.97726,4.66666 -4.97725,4.66667 -6.9419,6 -6.9419,6 -3.20142,3.15104 -3.20143,3.15104 -11.48216,19.1826 -11.48217,19.1826 -2.22821,1.66636 -2.2282,1.66636 -3.33009,4.81345 -3.33008,4.81345 -5.14845,6.88575 -5.14845,6.88576 -2.41875,1.29447 -2.41874,1.29448 -4.10442,8.33965 -4.10442,8.33966 -4.41794,8 -4.41794,8 -4.62777,8.66667 -4.62778,8.66667 -1.58842,5.33333 -1.58842,5.33333 -1.35349,5.33334 -1.35348,5.33333 -0.007,3.33333 -0.007,3.33334 h 9.77123 9.77123 l 6.52685,4.03524 6.52686,4.03525 4.03525,6.52686 4.03525,6.52686 v 9.43789 9.4379 l -4,6.53728 -4,6.53728 -3.70177,6.79605 -3.70177,6.79606 1.53212,6.46131 1.53213,6.46132 -0.83574,6.09739 -0.83574,6.0974 -3.44479,5.87808 -3.44478,5.87809 -6.14421,3.89653 -6.1442,3.89654 -2.20614,0 h -2.20614 l -4.05582,8.33334 -4.05582,8.33333 -2.59185,6.66667 -2.59185,6.66666 -1.47211,5.33334 -1.4721,5.33333 -1.93123,6.66667 -1.93122,6.66666 -1.60227,9.33334 -1.60226,9.33333 -1.14208,5.33334 -1.14208,5.33333 -2.20079,24.66667 -2.2008,24.66666 -0.0117,57.33334 -0.0117,57.33333 1.54408,16.33062 1.54407,16.33061 1.79212,8.33605 1.79212,8.33606 0.89886,2.66667 0.89885,2.66666 3.08986,6.66667 3.08985,6.66667 3.35611,7.33333 3.35611,7.33333 5.02755,10.00004 5.02756,10 3.56281,6.6872 3.56282,6.6873 6.44602,10.6187 6.44602,10.6188 4.50869,6.0273 4.50868,6.0273 4.24892,5.09 4.24891,5.09 3.08616,2.892 3.08616,2.8921 2.87125,4.6846 2.87126,4.6847 4.38579,6 4.38578,6 3.12524,3.3333 3.12524,3.3333 2.7898,4.1004 2.78979,4.1004 13.74177,8.0109 13.74176,8.011 4,1.472 4,1.4719 4.66133,0.928 4.66132,0.9281 4.00535,1.7257 4.00534,1.7257 7.33333,2.2477 7.33334,2.2477 9.33333,0.8559 9.33333,0.8559 z"
       id="path2" />
    <path
       style="fill:none"
       d="m 2356.3339,2556.8158 -7.6672,0.563 -4.8199,-1.8036 -4.8199,-1.8037 -4.1749,-2.9729 -4.175,-2.9728 -3.3052,-5.64 -3.3053,-5.64 -1.4141,-9.2728 -1.414,-9.2729 -1.1567,-7.3334 -1.1567,-7.3333 -0.9502,-4 -0.9502,-4 -2.4559,-7.3333 -2.4559,-7.3334 -2.6395,-7.3333 -2.6395,-7.3333 -3.4946,-9.3334 -3.4945,-9.3333 -1.8501,-6 -1.85,-6 -2.6554,-7.3333 -2.6554,-7.3334 -3.4895,-9.3333 -3.4895,-9.3333 -1.3389,-4.3898 -1.339,-4.3897 -2.4917,-4.2769 -2.4918,-4.277 -1.3892,-6.6666 -1.3892,-6.6667 -1.5076,-7.3333 -1.5076,-7.3334 -2.5799,-8 -2.58,-8 -1.8525,-6 -1.8524,-6 -3.5581,-9.3333 -3.5582,-9.3333 -1.7938,-7.3334 -1.7939,-7.3333 -1.9963,-6.6667 -1.9963,-6.6666 -2.0273,-5.3334 -2.0273,-5.3333 -0.059,-2.4161 -0.059,-2.4162 -2.1117,-6.9172 -2.1117,-6.9172 -1.9006,-4.6666 -1.9006,-4.6667 -1.2817,-6 -1.2818,-6 -1.9958,-8 -1.9959,-8 -1.5624,-6.1629 -1.5624,-6.1628 -6.1477,3.8017 -6.1477,3.8017 -10,1.5235 -10,1.5235 -6.6666,1.1405 -6.6667,1.1406 -13.3333,1.3817 -13.3334,1.3817 -6.6666,1.3026 -6.6667,1.3026 -26.6667,1.8957 -26.6666,1.8956 -3.3334,0.065 -3.3333,0.065 -43.3333,0.6233 -43.3334,0.6233 -8.6666,0.9031 -8.6667,0.9031 -8,1.8197 -8,1.8198 -6.14,1.5533 -6.1399,1.5534 -6.0202,-0.9028 -6.0202,-0.9028 -6.0564,-3.8408 -6.0563,-3.8408 -3.7835,-6.4368 -3.7835,-6.4368 v -9.3333 -9.3333 l 3.7404,-6.3632 3.7403,-6.3632 5.3667,-3.5515 5.3666,-3.5515 7.5597,-1.6822 7.5596,-1.6822 5.3334,-1.272 5.3333,-1.2719 8.6667,-1.6691 8.6666,-1.669 38,-0.3836 38,-0.3835 20.6667,-0.7864 20.6667,-0.7864 22.6666,-1.9803 22.6667,-1.9802 7.3333,-1.28 7.3334,-1.28 12,-1.3967 12,-1.3968 8.6666,-1.5555 8.6667,-1.5555 7,-0.08 7,-0.08 v -0.4195 -0.4195 l -2.4842,-6.2472 -2.4841,-6.2472 -2.7989,-7.6875 -2.7989,-7.6875 -2.9713,-7.6458 -2.9712,-7.6458 -3.7457,-5.9277 -3.7457,-5.9278 v -1.7382 -1.7383 l -3.2266,-6.334 -3.2266,-6.334 -3.0277,-8 -3.0277,-8 -3.7457,-5.9277 -3.7457,-5.9278 v -1.9434 -1.9434 l -27.4473,-45.4622 -27.4472,-45.4622 -6.4933,-9.3333 -6.4933,-9.3334 -5.7261,-6.4186 -5.7261,-6.4186 -5.3334,-5.6626 -5.3333,-5.6627 -3.5687,-4.7246 -3.5686,-4.7247 -8.2221,-0.7456 -8.2221,-0.7455 -6.174,-3.8171 -6.174,-3.8171 -4.0353,-6.5269 -4.0352,-6.5269 v -9.5424 -9.5425 l 4.0352,-6.5268 4.0353,-6.5269 6.5268,-4.0352 6.5269,-4.0353 h 17.4379 17.4379 l 6.3709,3.7449 6.3708,3.7449 1.6292,2.6438 1.6291,2.6439 5.4158,3.1871 5.4158,3.1872 7.1728,9.7574 7.1728,9.7575 4.7447,4.8537 4.7448,4.8538 4.4973,4.7836 4.4973,4.7835 8.3924,12.3627 8.3923,12.3627 27.4437,45.4462 27.4436,45.4461 v 1.4431 1.4431 l 4.5369,8.4441 4.5368,8.4441 2.6815,5.3333 2.6815,5.3333 2.8953,8 2.8953,8 3.8511,7.7855 3.851,7.7855 2.7231,4.406 2.723,4.406 1.8969,5.8085 1.8968,5.8085 2.6652,7.3334 2.6653,7.3333 3.5181,9.3333 3.5182,9.3334 1.7346,6.6666 1.7346,6.6667 2.9146,8 2.9146,8 2.043,7.3333 2.043,7.3334 1.9921,8 1.9921,8 2,8 2,8 1.7989,7.3333 1.7989,7.3333 1.8898,6.7282 1.8897,6.7282 1.4102,2.6349 1.4101,2.6349 1.3416,6.6369 1.3416,6.6369 2.0215,6.6667 2.0215,6.6667 2.0273,5.3333 2.0273,5.3333 0.064,2.6667 0.064,2.6667 3.4052,9.3333 3.4052,9.3333 1.8215,6 1.8215,6 3.5068,9.3334 3.5067,9.3333 1.0882,4 1.0881,4 1.6544,9.3333 1.6544,9.3334 2.0813,6.6666 2.0814,6.6667 1.7578,2.7472 1.7579,2.7471 1.9013,5.9195 1.9014,5.9195 3.5219,9.3334 3.522,9.3333 1.8216,6 1.8215,6 3.4879,9.3333 3.4879,9.3334 1.8353,5.3333 1.8352,5.3333 3.5456,9.3334 3.5456,9.3333 1.8278,6.6667 1.8278,6.6666 1.2853,5.3334 1.2853,5.3333 1.5024,9.3333 1.5025,9.3334 1.4473,7.5816 1.4473,7.5816 -0.8865,5.9119 -0.8866,5.9119 -3.8408,6.0563 -3.8408,6.0563 -6.1029,3.5766 -6.103,3.5766 z m -579.8764,-58.6778 -7.7908,0.5742 -4.8199,-1.8037 -4.8199,-1.8037 -4.1749,-2.9728 -4.175,-2.9729 -3.6718,-6.2462 -3.6718,-6.2462 -0.3192,-29.3333 -0.3191,-29.3333 1.3191,-7.6667 1.3192,-7.6667 1.2831,-7.6666 1.2832,-7.6667 1.5024,-9.3333 1.5025,-9.3334 1.2842,-5.3333 1.2842,-5.3333 1.8033,-7.3334 1.8034,-7.3333 2.043,-7.3333 2.043,-7.3334 2.9146,-8 2.9146,-8 1.885,-7.3333 1.885,-7.3333 1.9694,-8 1.9693,-8 1.875,-7.3334 1.875,-7.3333 2.9373,-8 2.9373,-8 1.81,-7.006 1.8099,-7.0061 1.9247,-6.9939 1.9246,-6.994 3.5457,-9.3333 3.5456,-9.3334 1.8679,-5.8085 1.8679,-5.8085 2.9808,-4.8229 2.9807,-4.823 3.6652,-7.3685 3.6652,-7.3686 0.042,-1.3075 0.042,-1.3076 2.8165,-7.3591 2.8165,-7.3591 4.1059,-8.6667 4.106,-8.6666 6.4108,-10.8085 6.4109,-10.8085 0.01,-1.8582 0,-1.8582 2.8468,-4.6666 2.8468,-4.6667 4.1989,-8 4.1988,-8 1.5885,-5.3333 1.5884,-5.3334 1.2883,-4.6666 1.2883,-4.6667 3.2242,-8.8484 3.2241,-8.8485 2.1818,-3.1149 2.1818,-3.1149 v -2.236 -2.236 l 4.657,-6.9202 4.6569,-6.9203 3.2731,-6.2137 3.2732,-6.2138 2.7868,-7.6458 2.7869,-7.6458 2.6667,-7.3333 2.6666,-7.3334 2.6667,-7.3333 2.6667,-7.3333 2.7383,-7.6876 2.7382,-7.6875 3.1881,-7.0126 3.188,-7.0127 3.2679,-6.9873 3.2679,-6.9874 2.8774,-8 2.8774,-8 3.0717,-6.6666 3.0718,-6.6667 8.9004,-18.3428 8.9003,-18.3427 2.9494,-3.6573 2.9493,-3.6572 3.9566,-5.8755 3.9567,-5.8754 4.3303,-6.1246 4.3303,-6.1245 4.1222,-6.3413 4.1223,-6.3412 2.6082,-1.8268 2.6082,-1.8269 4.0772,-6.429 4.0771,-6.429 1.2255,-8.7363 1.2255,-8.7362 3.6718,-5.9647 3.6719,-5.9648 6.5268,-4.0352 6.5269,-4.0353 h 9.5425 9.5424 l 6.5269,4.0353 6.5268,4.0352 3.978,6.4342 3.9779,6.4341 0.02,8.1973 0.02,8.1973 -1.6637,9.941 -1.6637,9.941 -3.6096,6.059 -3.6096,6.059 -2.3233,5.0718 -2.3233,5.0719 -5.033,5.1955 -5.033,5.1955 -4.6667,6.8467 -4.6666,6.8467 -4.6667,6.6706 -4.6667,6.6707 -4.8654,6.667 -4.8654,6.667 -8.6652,17.5483 -8.6651,17.5483 -2.9247,8 -2.9246,8 -3.1881,7.0126 -3.1881,7.0126 -3.2679,6.9874 -3.2679,6.9874 -2.8057,7.6458 -2.8058,7.6458 -2.6667,7.3333 -2.6666,7.3334 -2.6667,7.3333 -2.6667,7.3333 -2.7231,7.6875 -2.7231,7.6876 -3.2266,6.334 -3.2266,6.334 v 1.8653 1.8654 l -4.345,6.4673 -4.3449,6.4673 -3.0673,5.2099 -3.0672,5.2099 -1.992,5.4568 -1.9919,5.4567 -2.4661,7.3334 -2.4661,7.3333 -0.9451,4.6667 -0.9451,4.6666 -2.9834,6 -2.9835,6 -2.9977,6 -2.9976,6 -4.5369,8.4441 -4.5368,8.4441 v 1.44 1.44 l -7.1429,12.1159 -7.1428,12.1159 -3.0027,8 -3.0026,8 -3.1878,6.7999 -3.1879,6.7999 v 1.9391 1.9391 l -3.699,5.9277 -3.6989,5.9277 -2.2701,5.3333 -2.2701,5.3333 -2.1275,6 -2.1276,6 -2.0219,6 -2.022,6 -1.9315,7.3334 -1.9316,7.3333 -1.8661,6.6667 -1.866,6.6666 -2.9129,8 -2.913,8 -1.856,8 -1.856,8 -1.8547,7.3334 -1.8547,7.3333 -2.043,7.3333 -2.043,7.3334 -2.9147,8 -2.9146,8 -1.8841,7.3333 -1.8842,7.3333 -1.806,8.6667 -1.8061,8.6667 -1.5926,10 -1.5926,10 -1.3558,6.3461 -1.3558,6.3462 -0.1973,29.0928 -0.1973,29.0927 -4.0352,6.5258 -4.0353,6.5259 -6.174,3.8171 -6.174,3.8171 z m -499.1241,-524.2075 -63.3334,0.3623 -4,-1.122 -4,-1.1219 -12,-0.8661 -12,-0.8661 -5.3333,-1.6867 -5.3333,-1.6867 -9.3334,-1.6442 -9.3333,-1.6442 -4.6667,-1.2622 -4.6666,-1.2622 -4.6667,-1.2137 -4.6667,-1.2136 -8.3005,-1.3719 -8.3005,-1.3719 -9.5673,-4.8015 -9.5673,-4.8015 -9.012,-9.012 -9.0121,-9.0121 -2.1544,-4.1661 -2.1543,-4.1661 h -1.2313 -1.2312 l -3.5962,-4.7149 -3.5962,-4.7148 -2.3881,-6.9519 -2.3882,-6.9518 -3.5408,-9.3333 -3.5409,-9.3333 -1.8062,-7.3334 -1.8062,-7.3333 -1.2842,-5.3333 -1.2842,-5.3334 -1.5024,-9.3333 -1.5025,-9.3333 -1.2832,-7.6667 -1.2831,-7.6667 -1.4931,-8.3333 -1.4931,-8.3333 -2.0541,-6 -2.0542,-6 -0.3701,-66 -0.3701,-66.0001 2.5978,-28.6666 2.5978,-28.6667 1.1572,-6.6667 1.1572,-6.6666 1.506,-9.7737 1.5061,-9.7737 1.111,-2.2263 1.111,-2.2263 1.6473,-10 1.6474,-10 1.3011,-5.3334 1.3011,-5.3333 1.8033,-7.3333 1.8033,-7.3334 2.0256,-7.3333 2.0256,-7.3333 3.5456,-9.3334 3.5456,-9.3333 1.8352,-5.3333 1.8352,-5.3334 3.4725,-9.3333 3.4724,-9.3333 2.4516,-7.3334 2.4516,-7.3333 0.9451,-4.6667 0.9452,-4.6666 3.1147,-6 3.1147,-6 2.8585,-8 2.8585,-8 3.3543,-7.3334 3.3544,-7.3333 2.7,-5.3333 2.7,-5.3334 6.0083,-12 6.0082,-12 4.1829,-4 4.1829,-4 2.9898,-4.2393 2.9897,-4.2393 4.9762,-3.0052 4.9761,-3.0052 4.4284,-3.7982 4.4283,-3.7981 6.2383,-3.1391 6.2384,-3.1392 10.0298,-5.2619 10.0298,-5.262 6.6368,-4.881 6.6369,-4.8809 5.3333,-3.8567 5.3334,-3.8566 5.3333,-2.6389 5.3333,-2.639 5.3334,-2.7034 5.3333,-2.7034 7.654,-3.4997 7.654,-3.4996 7.6794,-3.5293 7.6793,-3.5294 3.3333,-1.7932 3.3333,-1.7933 11.3334,-5.4637 11.3333,-5.4637 6.6667,-3.0735 6.6666,-3.0736 8,-3.8565 8,-3.8565 6.0605,-3.5604 6.0605,-3.5604 9.2728,-1.4472 9.2729,-1.4472 11.4188,-1.1861 11.4189,-1.1862 33.2478,0.414 33.2478,0.414 5.5231,1.5322 5.5231,1.5322 27.1436,0.5494 27.1436,0.5493 6,1.983 6,1.983 4.6666,0.9175 4.6667,0.9174 4.576,2.6357 4.576,2.6356 5.424,1.7556 5.424,1.7555 4,0.8752 4,0.8752 7.3333,2.7263 7.3334,2.7263 6.6666,3.1226 6.6667,3.1227 7.6458,2.8057 7.6459,2.8058 7.6875,2.7383 7.6875,2.7382 6.6666,3.1227 6.6667,3.1226 7.6458,2.8058 7.6459,2.8057 7.6875,2.7232 7.6875,2.7231 6,2.9966 6,2.9966 4.2571,6.2666 4.2571,6.2665 0.8782,5.8562 0.8782,5.8562 -0.9016,5.3366 -0.9016,5.3367 -3.7969,5.987 -3.7969,5.9871 -6.4368,3.7775 -6.4368,3.7775 -8.6667,0.01 -8.6667,0.01 -7.6458,-3.0503 -7.6458,-3.0503 -7.6875,-2.7382 -7.6875,-2.7383 -6.6667,-3.1226 -6.6667,-3.1226 -7.6458,-2.8058 -7.6458,-2.8058 -7.6875,-2.7383 -7.6875,-2.7382 -6.6667,-3.0736 -6.6667,-3.0736 -4,-1.6249 -4,-1.625 -7.3333,-2.3831 -7.3333,-2.3832 -4.6667,-0.9256 -4.6667,-0.9256 -4.5759,-2.6357 -4.576,-2.6357 -5.424,-1.809 -5.4241,-1.809 -4.6666,-0.8438 -4.6667,-0.8439 -22.6667,-0.4111 -22.6666,-0.4112 -9.3334,-1.609 -9.3333,-1.609 -28.6667,0.01 -28.6666,0.01 -8.7363,1.2906 -8.7362,1.2906 -6.5248,4.138 -6.5248,4.1379 h -1.7383 -1.7382 l -6.3341,3.2343 -6.334,3.2342 -14.6667,6.9501 -14.6666,6.9501 -3.3334,1.8711 -3.3333,1.871 -4.6667,2.1011 -4.6666,2.101 -6.6667,3.0722 -6.6667,3.0722 -8.6666,4.1491 -8.6667,4.1492 -5.4792,3.6222 -5.4792,3.6222 -5.8541,3.9566 -5.8542,3.9567 -3.7288,3.0095 -3.7288,3.0096 -11.6045,5.6783 -11.6045,5.6783 -6.6667,4.3215 -6.6667,4.3214 -3.5578,3.034 -3.5578,3.0341 -3.8753,7.3333 -3.8753,7.3333 -4.7948,9.3334 -4.7948,9.3333 -2.894,8 -2.894,8 -3.118,6.6667 -3.1181,6.6666 -0.9043,2.6667 -0.9043,2.6667 -1.7544,6.6666 -1.7545,6.6667 -3.5456,9.3333 -3.5456,9.3334 -1.8352,5.3333 -1.8352,5.3333 -3.4833,9.3334 -3.4833,9.3333 -2.7004,8.6667 -2.7003,8.6666 -1.7217,6 -1.7217,6 -1.6007,9.3334 -1.6008,9.3333 -1.2833,5.3333 -1.2834,5.3334 -1.7563,8.6666 -1.7564,8.6667 -1.4866,8 -1.4866,8 -2.1293,23.3333 -2.1294,23.3334 0.016,60.6667 0.016,60.6666 1.3346,6 1.3347,6 1.305,5.3334 1.3051,5.3333 1.5025,9.3333 1.5024,9.3334 1.2832,7.6666 1.2831,7.6667 1.5012,8.3333 1.5011,8.3334 2.4135,7.3333 2.4136,7.3333 3.1438,8.6667 3.1438,8.6667 6.7895,7.0496 6.7896,7.0496 8.3552,1.3455 8.3552,1.3456 2.1301,1.0961 2.1301,1.096 9.3333,1.6476 9.3334,1.6475 6.3644,1.8985 6.3644,1.8984 12.5936,1.1915 12.5937,1.1915 1.5266,0.9435 1.5266,0.9435 57.5957,0.022 57.5957,0.021 6.5863,-1.4134 6.5863,-1.4134 9.3333,-1.4091 9.3334,-1.409 7.8515,-0.7379 7.8515,-0.738 6.1485,-1.8367 6.1485,-1.8368 8.6666,-2.7313 8.6667,-2.7313 6,-1.9455 6,-1.9455 10,-1.5666 10,-1.5667 6.6667,-1.2902 6.6666,-1.2901 7.3334,-2.0244 7.3333,-2.0243 4.6667,-1.8482 4.6666,-1.8482 4.6667,-1.3232 4.6667,-1.3232 7.3333,-2.6503 7.3333,-2.6503 9.3334,-3.4742 9.3333,-3.4743 6,-1.898 6,-1.898 9.1977,-6.0446 9.1977,-6.0446 1.469,-0.01 1.4689,-0.01 4.8399,-1.3444 4.8399,-1.3443 5.1601,-4.1556 5.1601,-4.1556 4.6667,-2.1619 4.6667,-2.162 13.3333,-7.9973 13.3333,-7.9974 h 9.4379 9.4379 l 6.5269,4.0353 6.5269,4.0352 4.0352,6.5269 4.0352,6.5268 v 9.5425 9.5424 l -4.0522,6.5545 -4.0523,6.5544 -12.6144,7.667 -12.6144,7.667 -1.0286,0.01 -1.0286,0.01 -5.638,3.6667 -5.6381,3.6666 -5.7205,4.2964 -5.7204,4.2965 -5.6129,1.4496 -5.6129,1.4496 -2.298,0.6659 -2.2981,0.666 -7.0172,4.827 -7.0172,4.827 -8.6847,3.1481 -8.6848,3.1482 -5.3333,1.8352 -5.3334,1.8352 -9.3333,3.522 -9.3333,3.522 -6,1.852 -6,1.8521 -6.6667,2.1846 -6.6667,2.1847 -4.6666,1.8979 -4.6667,1.898 -6,1.2303 -6,1.2304 -5.3333,1.322 -5.3334,1.3219 -10,1.5411 -10,1.5412 -8,2.6313 -8,2.6314 -7.3333,2.0564 -7.3333,2.0564 -7.3334,1.8297 -7.3333,1.8297 -6,1.3056 -6,1.3055 -12.6667,1.4356 -12.6666,1.4356 -7.3334,1.4197 -7.3333,1.4197 z m -708.00005,-768.0018 -28.66667,0.3745 -8.66666,-0.92 -8.66667,-0.9201 -4.66667,-1.5025 -4.66666,-1.5026 -6.66667,-2.1326 -6.66667,-2.1326 -6.66667,-2.0131 -6.66666,-2.013 -6.66667,-1.7323 -6.66667,-1.7323 -10,-5.2685 -10,-5.2686 -14.89526,-8.9441 -14.89526,-8.9441 -5.10474,-6.825 -5.10474,-6.8249 -3.33008,-4.8134 -3.33009,-4.8135 -2.22722,-1.6656 -2.22722,-1.6657 -3.04071,-5.001 -3.04071,-5.001 -4.06865,-5.329 -4.06865,-5.329 -2.22398,-1.67 -2.22397,-1.67 -3.04841,-5.001 -3.04841,-5.001 -2.27505,-1.6588 -2.27505,-1.6587 -4.45257,-6.8157 -4.45256,-6.8156 -5.71257,-8.859 -5.71257,-8.8589 -3.13123,-6 -3.13122,-6 -4.82851,-8.6666 -4.8285,-8.6667 -2.15082,-4.6667 -2.15082,-4.6666 -3.38741,-7.3334 -3.38741,-7.3333 -3.31455,-7.3333 -3.31454,-7.33337 -3.089,-6.10294 -3.08899,-6.10293 -0.90207,-5.89707 -0.90206,-5.89706 -1.1594,-2.26224 -1.1594,-2.26225 -1.31622,-8.40442 -1.31621,-8.40442 -1.89885,-20.66667 -1.89884,-20.66667 -0.0337,-54.66667 -0.0337,-54.66667 1.95279,-26 1.95278,-26 1.25465,-7.33333 1.25464,-7.33333 1.50247,-9.33334 1.50246,-9.33333 1.28419,-5.33334 1.28418,-5.33333 1.81561,-7.33333 1.8156,-7.33334 1.49602,-6 1.49601,-6 2.74048,-7.33333 2.74049,-7.33333 3.18806,-7.01265 3.18805,-7.01264 3.26333,-6.98736 3.26333,-6.98735 0.65805,-2.1766 0.65806,-2.17659 -2.96346,-5.82341 -2.96346,-5.8234 -3.93455,-6.66667 -3.93455,-6.66667 -0.31074,-22 -0.31074,-22 1.19714,-6 1.19714,-6 1.54896,-10 1.54896,-10 1.30223,-5.33333 1.30223,-5.33334 1.68577,-6.66666 1.68578,-6.66667 2.78089,-5.33334 2.78088,-5.33333 2.12345,-4.66667 2.12345,-4.66666 4.83159,-8.66667 4.83158,-8.66667 6.74092,-13.33333 6.74093,-13.33333 4.76646,-4.8277 4.76646,-4.8277 5.33333,-7.09955 5.33333,-7.09954 3.73414,-3.90946 3.73414,-3.90946 9.75671,-16.1633 9.75671,-16.1633 5.40501,-8.11175 5.40502,-8.11175 3.74771,-2.4556 3.74771,-2.45559 4.17571,-4.09932 4.17571,-4.09932 6.02532,-5.33333 6.02531,-5.33334 6.48874,-5.68663 6.48873,-5.68663 6,-4.8241 6,-4.8241 3,-1.36996 3,-1.36995 v -1.07726 l 0,-1.07725 7.47249,-5.70873 7.47249,-5.70872 5.65207,-4 5.65206,-4 5.87545,-3.92208 5.87545,-3.92209 7.8186,-5.07791 7.8186,-5.07792 h 2.19201 2.192 l 6.26165,-3.33334 6.26165,-3.33333 1.59453,0 1.59452,0 6.79989,-3.2425 6.79988,-3.24251 6.66667,-2.20727 6.66666,-2.20726 7.33334,-1.81377 7.33333,-1.81376 5.33333,-1.28419 5.33334,-1.28418 8.66667,-1.39701 8.66666,-1.39702 h 33.33334 33.33333 l 8.66667,1.39702 8.66666,1.39701 5.33334,1.30506 5.33333,1.30506 6,1.23036 6,1.23036 4.66667,1.90058 4.66667,1.90058 6.66666,1.97985 6.66667,1.97984 4.66667,0.94724 4.66666,0.94724 6,2.99289 6,2.9929 8,3.66801 8,3.668 5.33334,2.66446 5.33333,2.66446 9.33333,4.65327 9.33334,4.65326 7.33333,3.34895 7.33334,3.34894 5.33333,2.65355 5.33333,2.65355 8.44407,4.53685 8.44407,4.53685 1.44199,0 1.44198,0 25.76806,15.44035 25.76807,15.44035 0.67685,1.09517 0.67685,1.09517 12.3357,7.55313 12.3357,7.55313 6.85351,4.91135 6.85352,4.91135 5.14648,3.92849 5.14649,3.9285 4,3.61657 4,3.61657 14.66667,14.73476 14.6667,14.73475 6.4227,6.75275 6.4227,6.75274 2.7839,6.29346 2.7839,6.29345 6.578,11.34065 6.5781,11.34065 1.9374,3.33333 1.9375,3.33333 2.0736,4.66667 2.0737,4.66667 2.7809,5.33333 2.7808,5.33333 1.6858,6.66667 1.6858,6.66667 1.2853,5.33333 1.2853,5.33334 1.4646,8.66666 1.4645,8.66667 -0.7255,35.33333 -0.7255,35.33334 -0.3495,8.66666 -0.3495,8.66667 -1.6143,9.77369 -1.6143,9.77369 -1.323,2.47199 -1.3229,2.47199 -0.059,3.08765 -0.058,3.08766 -2.0273,5.33333 -2.0273,5.33334 -1.9975,6.66666 -1.9975,6.66667 -1.8154,6.66667 -1.8153,6.66666 -3.5456,9.33334 -3.5456,9.33333 -1.8353,5.33333 -1.8352,5.33334 -3.4981,9.33333 -3.4981,9.33334 -1.799,5.57939 -1.799,5.5794 -2.5735,5.08727 -2.5735,5.08727 -3.4931,7.67931 -3.4932,7.67931 -3.3334,7.33334 -3.3333,7.33333 -3.4996,7.65402 -3.49967,7.65402 -2.66446,5.33334 -2.66445,5.33333 -4.64609,9.33333 -4.6461,9.33334 -2.70905,5.33333 -2.70904,5.33334 -5.41213,10.66666 -5.41213,10.66667 -5.95621,10 -5.95622,10 -2.52066,3.33333 -2.52066,3.33334 -5.2818,7.29745 -5.2818,7.29745 v 0.98105 0.98106 l 24.33333,24.51304 24.33334,24.51305 5.33333,6.27234 5.33333,6.27233 4.66664,5.00864 4.6667,5.00864 5.3333,7.09977 5.3334,7.09978 4.6666,4.97727 4.6667,4.9772 5.6866,6.5171 5.6867,6.5172 4.3133,5.5098 4.3134,5.5098 5.3333,6.9958 5.3334,6.9958 4.6666,4.9591 4.6667,4.9591 4.1142,5.2019 4.1141,5.202 5.7763,9.3333 5.7763,9.3334 2.28,2.6666 2.2801,2.6667 8.8484,14.1924 8.8485,14.1924 3.2524,2.1311 3.2524,2.131 3.7286,6.3432 3.7287,6.3432 v 9.4379 9.4379 l -4.0352,6.5269 -4.0353,6.5268 -6.5269,4.0353 -6.5268,4.0352 h -9.4379 -9.4379 l -6.2462,-3.6718 -6.2462,-3.6718 -2.9428,-4.3282 -2.9427,-4.3282 -3.87,-3.3471 -3.87,-3.3471 -10.2744,-16.1134 -10.2744,-16.1135 -6.5159,-9.8728 -6.5159,-9.8727 -3.8999,-4.6667 -3.8998,-4.6667 -5.2709,-6 -5.2708,-6 -4.3134,-5.5098 -4.31337,-5.5098 -5.33333,-6.9958 -5.33334,-6.9958 -4.66666,-4.9773 -4.66667,-4.9772 -5.68663,-6.5172 -5.68663,-6.5171 -4.69128,-6 -4.69128,-6 -5.62209,-6.363 -5.62209,-6.363 -20.38126,-20.68112 -20.38126,-20.68109 -4.51672,4.78911 -4.51672,4.78912 -2.33083,3.58834 -2.33084,3.58834 -4.10452,5.20196 -4.10452,5.20196 -4.66667,4.95907 -4.66666,4.95911 -5.33334,7.0371 -5.33333,7.0372 -10,10.4241 -10,10.4241 -5.33334,6.3073 -5.33333,6.3073 -3.52261,3.4037 -3.52261,3.4038 -5.98866,5.3333 -5.98865,5.3333 -6.87253,6 -6.87253,6 -11.0639,10.6667 -11.06389,10.6667 -6.30161,5.3333 -6.30161,5.3333 -6.60162,6.3334 -6.60163,6.3333 h -1.26935 -1.26934 l -4.37973,3.8166 -4.37973,3.8166 -30,17.9595 -30,17.9594 -4,2.0791 -4,2.0792 -8,4.3812 -8,4.3811 -13.33578,6.8495 -13.33577,6.8494 -3.58078,2.3462 -3.58078,2.3462 -6.41678,1.8148 -6.41678,1.8148 -6,2.1969 -6,2.197 z m -1.33333,-61.5483 15.33333,-0.3009 4.54896,-0.8073 4.54897,-0.8072 6.1177,-3.092 6.1177,-3.092 14.00001,-7.3393 14,-7.3393 7.33333,-3.9244 7.33333,-3.9245 30.66667,-18.4017 30.66667,-18.4017 4.66666,-3.8454 4.66667,-3.8453 6.99633,-6.2963 6.99633,-6.2964 10.58268,-10 10.58267,-10 5.93226,-5.3333 5.93226,-5.3334 6.87122,-6 6.87121,-6 5.61752,-5.6741 5.61752,-5.6742 5.33334,-6.22621 5.33333,-6.22623 7.35974,-7.43295 7.35974,-7.43295 3.88435,-5.33333 3.88436,-5.33333 4.08924,-4.10112 4.08924,-4.10111 5.33333,-7.15946 5.33334,-7.15946 3.34349,-3.51882 3.34349,-3.51881 3.65651,-5.52536 3.65651,-5.52536 v -0.78479 l 0,-0.78479 -5,-4.82113 -5,-4.82114 -5.36065,-4.18026 -5.36064,-4.18026 -10.63936,-6.40153 -10.63936,-6.40154 -2.66666,-2.31064 -2.66667,-2.31064 -12.44054,-7.53023 -12.44054,-7.53022 h -1.09214 -1.09214 l -6.92023,-4.65697 -6.92022,-4.65697 -6.21376,-3.15129 -6.21376,-3.15129 -8,-3.65943 -8,-3.65943 -6.33403,-3.19898 -6.33403,-3.19898 h -1.55006 -1.55005 l -12.11592,-7.39622 -12.11592,-7.39622 -7.33333,-5.96253 -7.33333,-5.96252 -6.89457,-4.55725 -6.89456,-4.55724 -3.7721,-6.41734 -3.77211,-6.41735 v -9.33333 -9.33333 l 3.78351,-6.4368 3.7835,-6.43679 5.98709,-3.7969 5.98709,-3.7969 5.33663,-0.90162 5.33663,-0.90162 5.71961,0.85771 5.71962,0.85771 5.83983,3.94077 5.83983,3.94078 7.60971,5.67016 7.60971,5.67016 5.72362,4.11576 5.72363,4.11575 6.66666,3.35917 6.66667,3.35917 8,3.65943 8,3.65943 6.33403,3.19898 6.33403,3.19898 h 1.73826 1.73827 l 6.59437,4.26935 6.59437,4.26936 7.16154,4.39731 7.16154,4.39731 h 0.72255 0.72254 l 12.41799,7.41009 12.418,7.41008 0.69556,1.12543 0.69556,1.12544 12.33569,7.56452 12.3357,7.56452 6.32375,4.35222 6.32374,4.35222 4.94298,5.08963 4.94299,5.08963 1.39994,-2.40195 1.39994,-2.40195 4.0227,-5.47327 4.02271,-5.47327 4.22098,-6.66667 4.22099,-6.66666 5.1915,-10.00001 5.1915,-10 5.01829,-10 5.01829,-10 2.68724,-5.33333 2.68724,-5.33333 4.65327,-9.33334 4.65327,-9.33333 3.18263,-7.01264 3.18264,-7.01265 3.33333,-7.33333 3.33334,-7.33334 3.2679,-6.98735 3.26789,-6.98736 2.80578,-7.64582 2.80577,-7.64582 2.66666,-7.33333 2.66667,-7.33334 2.79887,-7.68751 2.79886,-7.68751 2.26569,-6 2.2657,-6 1.46957,-5.33334 1.46958,-5.33333 2.15253,-6.66667 2.15254,-6.66666 2.00807,-6.66667 2.00806,-6.66667 1.91375,-8.62844 1.91376,-8.62844 0.815,-19.37156 0.8151,-19.37156 7e-4,-21.63242 7e-4,-21.63241 -1.6132,-7.03425 -1.61318,-7.03425 -1.78376,-5.33334 -1.78377,-5.33333 -3.87396,-7.35393 -3.87396,-7.35393 -6.05174,-9.9794 -6.05174,-9.97941 -2.05195,-4.92366 -2.05195,-4.92366 -16.50497,-16.40967 -16.50498,-16.40968 -5.14674,-4 -5.14675,-4 -6.20688,-4.79687 -6.20688,-4.79687 -10.57466,-6.36226 -10.57467,-6.36226 -2.66667,-2.34773 -2.66666,-2.34772 -24.7942,-14.82648 -24.79419,-14.82648 -1.94477,0 -1.94476,0 -6.0043,-3.66666 -6.0043,-3.66667 -7.60272,-3.64329 -7.60272,-3.64329 -7.65402,-3.49964 -7.65403,-3.49964 -5.33333,-2.66446 -5.33333,-2.66446 -9.33334,-4.65327 -9.33333,-4.65327 -6.66667,-3.14526 -6.66666,-3.14526 -4.66667,-1.33177 -4.66667,-1.33177 -6.66666,-2.13261 -6.66667,-2.13261 -6.66667,-2.00806 -6.66667,-2.00807 -8.66666,-2.01248 -8.66667,-2.01248 -33.33333,0 -33.33334,0 -8.66666,2.01248 -8.66667,2.01248 -6.66667,1.99181 -6.66667,1.99181 -6,2.11835 -6,2.11834 -4.8482,2.63488 -4.84821,2.63487 -1.82907,0 -1.82907,0 -5.98939,3.19346 -5.98939,3.19346 -6.66667,4.50474 -6.66666,4.50474 -7.83445,5.96847 -7.83445,5.96847 -4.16555,2.97587 -4.16555,2.97587 -4.10516,3.69079 -4.10516,3.6908 -7.06714,5.33333 -7.06714,5.33334 -4.97726,4.66666 -4.97725,4.66667 -6.9419,6 -6.9419,6 -3.20142,3.15104 -3.20143,3.15104 -11.48216,19.1826 -11.48217,19.1826 -2.22821,1.66636 -2.2282,1.66636 -3.33009,4.81345 -3.33008,4.81345 -5.14845,6.88575 -5.14845,6.88576 -2.41875,1.29447 -2.41874,1.29448 -4.10442,8.33965 -4.10442,8.33966 -4.41794,8 -4.41794,8 -4.62777,8.66667 -4.62778,8.66667 -1.58842,5.33333 -1.58842,5.33333 -1.35349,5.33334 -1.35348,5.33333 -0.007,3.33333 -0.007,3.33334 h 9.77123 9.77123 l 6.52685,4.03524 6.52686,4.03525 4.03525,6.52686 4.03525,6.52686 v 9.43789 9.4379 l -4,6.53728 -4,6.53728 -3.70177,6.79605 -3.70177,6.79606 1.53212,6.46131 1.53213,6.46132 -0.83574,6.09739 -0.83574,6.0974 -3.44479,5.87808 -3.44478,5.87809 -6.14421,3.89653 -6.1442,3.89654 -2.20614,0 h -2.20614 l -4.05582,8.33334 -4.05582,8.33333 -2.59185,6.66667 -2.59185,6.66666 -1.47211,5.33334 -1.4721,5.33333 -1.93123,6.66667 -1.93122,6.66666 -1.60227,9.33334 -1.60226,9.33333 -1.14208,5.33334 -1.14208,5.33333 -2.20079,24.66667 -2.2008,24.66666 -0.0117,57.33334 -0.0117,57.33333 1.54408,16.33062 1.54407,16.33061 1.79212,8.33605 1.79212,8.33606 0.89886,2.66667 0.89885,2.66666 3.08986,6.66667 3.08985,6.66667 3.35611,7.33333 3.35611,7.33333 5.02755,10.00004 5.02756,10 3.56281,6.6872 3.56282,6.6873 6.44602,10.6187 6.44602,10.6188 4.50869,6.0273 4.50868,6.0273 4.24892,5.09 4.24891,5.09 3.08616,2.892 3.08616,2.8921 2.87125,4.6846 2.87126,4.6847 4.38579,6 4.38578,6 3.12524,3.3333 3.12524,3.3333 2.7898,4.1004 2.78979,4.1004 13.74177,8.0109 13.74176,8.011 4,1.472 4,1.4719 4.66133,0.928 4.66132,0.9281 4.00535,1.7257 4.00534,1.7257 7.33333,2.2477 7.33334,2.2477 9.33333,0.8559 9.33333,0.8559 z"
       id="path1" />
  </g>
</svg>
